<mxfile host="65bd71144e">
    <diagram id="OrU2HZC30jFbRNyi6LIE" name="Page-1">
        <mxGraphModel dx="1662" dy="762" grid="1" gridSize="10" guides="1" tooltips="1" connect="1" arrows="1" fold="1" page="1" pageScale="1" pageWidth="827" pageHeight="1169" math="0" shadow="0">
            <root>
                <mxCell id="0"/>
                <mxCell id="1" parent="0"/>
                <mxCell id="4" value="Database" style="rounded=0;whiteSpace=wrap;html=1;" vertex="1" parent="1">
                    <mxGeometry y="310" width="120" height="60" as="geometry"/>
                </mxCell>
                <mxCell id="5" value="FRONTEND" style="whiteSpace=wrap;html=1;aspect=fixed;" vertex="1" parent="1">
                    <mxGeometry x="450" y="230" width="200" height="200" as="geometry"/>
                </mxCell>
                <mxCell id="8" value="" style="endArrow=classic;html=1;exitX=-0.016;exitY=0.556;exitDx=0;exitDy=0;exitPerimeter=0;startArrow=none;" edge="1" parent="1" source="7">
                    <mxGeometry width="50" height="50" relative="1" as="geometry">
                        <mxPoint x="400" y="410" as="sourcePoint"/>
                        <mxPoint x="350" y="340" as="targetPoint"/>
                    </mxGeometry>
                </mxCell>
                <mxCell id="9" value="HTTP REQ" style="text;html=1;align=center;verticalAlign=middle;resizable=0;points=[];autosize=1;strokeColor=none;fillColor=none;" vertex="1" parent="1">
                    <mxGeometry x="360" y="300" width="80" height="30" as="geometry"/>
                </mxCell>
                <mxCell id="10" value="" style="endArrow=classic;html=1;entryX=1;entryY=0.5;entryDx=0;entryDy=0;exitX=0;exitY=0.5;exitDx=0;exitDy=0;" edge="1" parent="1" source="7" target="4">
                    <mxGeometry width="50" height="50" relative="1" as="geometry">
                        <mxPoint x="190" y="350" as="sourcePoint"/>
                        <mxPoint x="220" y="300" as="targetPoint"/>
                    </mxGeometry>
                </mxCell>
                <mxCell id="11" value="" style="endArrow=classic;html=1;exitX=0.998;exitY=0.872;exitDx=0;exitDy=0;exitPerimeter=0;entryX=0.01;entryY=0.652;entryDx=0;entryDy=0;entryPerimeter=0;" edge="1" parent="1" source="7" target="5">
                    <mxGeometry width="50" height="50" relative="1" as="geometry">
                        <mxPoint x="410" y="410" as="sourcePoint"/>
                        <mxPoint x="460" y="360" as="targetPoint"/>
                    </mxGeometry>
                </mxCell>
                <mxCell id="12" value="RESPONSE" style="text;html=1;align=center;verticalAlign=middle;resizable=0;points=[];autosize=1;strokeColor=none;fillColor=none;" vertex="1" parent="1">
                    <mxGeometry x="350" y="360" width="90" height="30" as="geometry"/>
                </mxCell>
                <mxCell id="13" value="BODY" style="rounded=1;whiteSpace=wrap;html=1;" vertex="1" parent="1">
                    <mxGeometry x="250" y="80" width="80" height="40" as="geometry"/>
                </mxCell>
                <mxCell id="14" value="URL" style="rounded=1;whiteSpace=wrap;html=1;" vertex="1" parent="1">
                    <mxGeometry x="445" y="80" width="80" height="40" as="geometry"/>
                </mxCell>
                <mxCell id="15" value="HEADER" style="rounded=1;whiteSpace=wrap;html=1;" vertex="1" parent="1">
                    <mxGeometry x="340" y="80" width="80" height="40" as="geometry"/>
                </mxCell>
                <mxCell id="17" value="" style="endArrow=classic;html=1;exitX=0.403;exitY=-0.045;exitDx=0;exitDy=0;exitPerimeter=0;entryX=0.5;entryY=1;entryDx=0;entryDy=0;" edge="1" parent="1" source="9" target="15">
                    <mxGeometry width="50" height="50" relative="1" as="geometry">
                        <mxPoint x="230" y="330" as="sourcePoint"/>
                        <mxPoint x="400" y="160" as="targetPoint"/>
                    </mxGeometry>
                </mxCell>
                <mxCell id="18" value="" style="endArrow=none;html=1;exitX=-0.016;exitY=0.556;exitDx=0;exitDy=0;exitPerimeter=0;" edge="1" parent="1" source="5" target="7">
                    <mxGeometry width="50" height="50" relative="1" as="geometry">
                        <mxPoint x="666.8000000000002" y="341.19999999999993" as="sourcePoint"/>
                        <mxPoint x="350" y="339.9999999999999" as="targetPoint"/>
                    </mxGeometry>
                </mxCell>
                <mxCell id="7" value="API" style="rounded=1;whiteSpace=wrap;html=1;" vertex="1" parent="1">
                    <mxGeometry x="180" y="310" width="140" height="60" as="geometry"/>
                </mxCell>
                <mxCell id="19" value="" style="endArrow=classic;html=1;entryX=0.5;entryY=1;entryDx=0;entryDy=0;" edge="1" parent="1" source="9" target="13">
                    <mxGeometry width="50" height="50" relative="1" as="geometry">
                        <mxPoint x="490" y="290" as="sourcePoint"/>
                        <mxPoint x="410" y="169.9999999999999" as="targetPoint"/>
                        <Array as="points"/>
                    </mxGeometry>
                </mxCell>
                <mxCell id="20" value="" style="endArrow=classic;html=1;entryX=0.5;entryY=1;entryDx=0;entryDy=0;" edge="1" parent="1" target="14">
                    <mxGeometry width="50" height="50" relative="1" as="geometry">
                        <mxPoint x="390" y="300" as="sourcePoint"/>
                        <mxPoint x="490" y="169.9999999999999" as="targetPoint"/>
                        <Array as="points"/>
                    </mxGeometry>
                </mxCell>
                <mxCell id="21" value="&lt;span style=&quot;font-family: Verdana, sans-serif; font-size: 9px; text-align: start; background-color: rgb(255, 255, 255);&quot;&gt;&lt;font color=&quot;#ff0000&quot; style=&quot;font-size: 9px;&quot;&gt;GET METHOD&lt;/font&gt;&lt;/span&gt;&lt;span style=&quot;color: rgb(0, 0, 0); font-family: Verdana, sans-serif; font-size: 9px; text-align: start; background-color: rgb(255, 255, 255);&quot;&gt;&amp;nbsp;&lt;/span&gt;&lt;br style=&quot;font-size: 9px;&quot;&gt;&lt;span style=&quot;color: rgb(0, 0, 0); font-family: Verdana, sans-serif; font-size: 9px; text-align: start; background-color: rgb(255, 255, 255);&quot;&gt;GET, belirli bir kaynaktan veri istemek için kullanılır.&lt;/span&gt;&lt;br style=&quot;font-size: 9px;&quot;&gt;&lt;ul style=&quot;box-sizing: inherit; color: rgb(0, 0, 0); font-family: Verdana, sans-serif; font-size: 9px; text-align: start; background-color: rgb(255, 255, 255);&quot;&gt;&lt;li style=&quot;box-sizing: inherit; font-size: 9px;&quot;&gt;&lt;font style=&quot;box-sizing: inherit; vertical-align: inherit; font-size: 9px;&quot;&gt;GET istekleri önbelleğe alınabilir&lt;/font&gt;&lt;/li&gt;&lt;li style=&quot;box-sizing: inherit; font-size: 9px;&quot;&gt;&lt;font style=&quot;box-sizing: inherit; vertical-align: inherit; font-size: 9px;&quot;&gt;GET istekleri tarayıcı geçmişinde kalır&lt;/font&gt;&lt;/li&gt;&lt;li style=&quot;box-sizing: inherit; font-size: 9px;&quot;&gt;&lt;font style=&quot;box-sizing: inherit; vertical-align: inherit; font-size: 9px;&quot;&gt;GET istekleri yer imlerine eklenebilir&lt;/font&gt;&lt;/li&gt;&lt;li style=&quot;box-sizing: inherit; font-size: 9px;&quot;&gt;&lt;font style=&quot;box-sizing: inherit; vertical-align: inherit; font-size: 9px;&quot;&gt;Hassas verilerle uğraşırken GET istekleri asla kullanılmamalıdır&lt;/font&gt;&lt;/li&gt;&lt;li style=&quot;box-sizing: inherit; font-size: 9px;&quot;&gt;&lt;font style=&quot;box-sizing: inherit; vertical-align: inherit; font-size: 9px;&quot;&gt;GET isteklerinin uzunluk kısıtlamaları var&lt;/font&gt;&lt;/li&gt;&lt;li style=&quot;box-sizing: inherit; font-size: 9px;&quot;&gt;&lt;font style=&quot;box-sizing: inherit; vertical-align: inherit; font-size: 9px;&quot;&gt;GET istekleri yalnızca veri istemek için kullanılır (değiştirmek için değil)&lt;/font&gt;&lt;/li&gt;&lt;/ul&gt;" style="rounded=0;whiteSpace=wrap;html=1;movable=1;resizable=1;rotatable=1;deletable=1;editable=1;connectable=1;fillColor=#FFFFFF;fontSize=9;" vertex="1" parent="1">
                    <mxGeometry y="440" width="400" height="190" as="geometry"/>
                </mxCell>
                <mxCell id="27" value="&lt;span style=&quot;font-family: Verdana, sans-serif; font-size: 9px; text-align: start; background-color: rgb(255, 255, 255);&quot;&gt;&lt;font color=&quot;#ff0000&quot; style=&quot;font-size: 9px;&quot;&gt;POST METHOD&lt;/font&gt;&lt;br style=&quot;font-size: 9px;&quot;&gt;&lt;/span&gt;&lt;span style=&quot;color: rgb(0, 0, 0); font-family: Verdana, sans-serif; font-size: 9px; text-align: start; background-color: rgb(255, 255, 255);&quot;&gt;POST, bir kaynağı oluşturmak/güncellemek amacıyla sunucuya veri göndermek için kullanılır.&amp;nbsp;&lt;/span&gt;&lt;span style=&quot;color: rgb(0, 0, 0); font-family: Verdana, sans-serif; font-size: 9px; text-align: start; background-color: rgb(255, 255, 255);&quot;&gt;POST ile sunucuya gönderilen veriler, HTTP isteğinin istek gövdesinde saklanır.&lt;br style=&quot;font-size: 9px;&quot;&gt;&lt;/span&gt;&lt;ul style=&quot;box-sizing: inherit; color: rgb(0, 0, 0); font-family: Verdana, sans-serif; font-size: 9px; text-align: start; background-color: rgb(255, 255, 255);&quot;&gt;&lt;li style=&quot;box-sizing: inherit; font-size: 9px;&quot;&gt;&lt;font style=&quot;box-sizing: inherit; vertical-align: inherit; font-size: 9px;&quot;&gt;POST istekleri hiçbir zaman önbelleğe alınmaz&lt;/font&gt;&lt;/li&gt;&lt;li style=&quot;box-sizing: inherit; font-size: 9px;&quot;&gt;&lt;font style=&quot;box-sizing: inherit; vertical-align: inherit; font-size: 9px;&quot;&gt;POST istekleri tarayıcı geçmişinde kalmıyor&lt;/font&gt;&lt;/li&gt;&lt;li style=&quot;box-sizing: inherit; font-size: 9px;&quot;&gt;&lt;font style=&quot;box-sizing: inherit; vertical-align: inherit; font-size: 9px;&quot;&gt;POST istekleri yer imlerine eklenemez&lt;/font&gt;&lt;/li&gt;&lt;li style=&quot;box-sizing: inherit; font-size: 9px;&quot;&gt;&lt;font style=&quot;box-sizing: inherit; vertical-align: inherit; font-size: 9px;&quot;&gt;POST isteklerinin veri uzunluğu konusunda herhangi bir kısıtlaması yoktur&lt;/font&gt;&lt;/li&gt;&lt;/ul&gt;&lt;span style=&quot;color: rgb(0, 0, 0); font-family: Verdana, sans-serif; font-size: 9px; text-align: start; background-color: rgb(255, 255, 255);&quot;&gt;&lt;br style=&quot;font-size: 9px;&quot;&gt;&lt;/span&gt;" style="rounded=0;whiteSpace=wrap;html=1;fillColor=#FFFFFF;fontSize=9;" vertex="1" parent="1">
                    <mxGeometry x="420" y="440" width="400" height="190" as="geometry"/>
                </mxCell>
                <mxCell id="35" value="&lt;br style=&quot;font-size: 8px;&quot;&gt;&lt;b id=&quot;docs-internal-guid-06a7bacb-7fff-3c5e-f8fd-9eb3d7ab22f0&quot; style=&quot;font-weight: normal; font-size: 8px;&quot;&gt;&lt;div align=&quot;left&quot; style=&quot;margin-left: 0pt; line-height: 0%; font-size: 8px;&quot; dir=&quot;ltr&quot;&gt;&lt;table style=&quot;border: none; border-collapse: collapse; font-size: 8px;&quot;&gt;&lt;colgroup style=&quot;font-size: 8px;&quot;&gt;&lt;col width=&quot;85&quot; style=&quot;font-size: 8px;&quot;&gt;&lt;col width=&quot;287&quot; style=&quot;font-size: 8px;&quot;&gt;&lt;col width=&quot;230&quot; style=&quot;font-size: 8px;&quot;&gt;&lt;/colgroup&gt;&lt;tbody style=&quot;font-size: 8px;&quot;&gt;&lt;tr style=&quot;height: 40.5pt; font-size: 8px;&quot;&gt;&lt;td style=&quot;vertical-align: top; background-color: rgb(255, 255, 255); padding: 6pt 6pt 6pt 12pt; overflow: hidden; overflow-wrap: break-word; font-size: 8px;&quot;&gt;&lt;p style=&quot;line-height: 1.38; margin-top: 15pt; margin-bottom: 15pt; font-size: 8px;&quot; dir=&quot;ltr&quot;&gt;&lt;span style=&quot;font-size: 8px; font-family: Verdana, sans-serif; color: rgb(0, 0, 0); background-color: transparent; font-weight: 400; font-style: normal; font-variant: normal; text-decoration: none; vertical-align: baseline;&quot;&gt;&lt;br style=&quot;font-size: 8px;&quot;&gt;&lt;/span&gt;&lt;/p&gt;&lt;p style=&quot;line-height: 1.38; margin-top: 15pt; margin-bottom: 15pt; font-size: 8px;&quot; dir=&quot;ltr&quot;&gt;&lt;span style=&quot;font-size: 8px; font-family: Verdana, sans-serif; color: rgb(0, 0, 0); background-color: transparent; font-weight: 400; font-style: normal; font-variant: normal; text-decoration: none; vertical-align: baseline;&quot;&gt;GERİ düğmesi/Yeniden yükle&lt;/span&gt;&lt;/p&gt;&lt;/td&gt;&lt;td style=&quot;vertical-align: top; background-color: rgb(255, 255, 255); padding: 6pt; overflow: hidden; overflow-wrap: break-word; font-size: 8px;&quot;&gt;&lt;p style=&quot;line-height: 1.38; margin-top: 15pt; margin-bottom: 15pt; font-size: 8px;&quot; dir=&quot;ltr&quot;&gt;&lt;font color=&quot;#ff0000&quot; face=&quot;Verdana, sans-serif&quot; style=&quot;font-size: 8px;&quot;&gt;&lt;span style=&quot;font-size: 8px;&quot;&gt;GET&lt;/span&gt;&lt;/font&gt;&lt;/p&gt;&lt;p style=&quot;line-height: 1.38; margin-top: 15pt; margin-bottom: 15pt; font-size: 8px;&quot; dir=&quot;ltr&quot;&gt;&lt;span style=&quot;font-size: 8px; font-family: Verdana, sans-serif; color: rgb(0, 0, 0); background-color: transparent; font-weight: 400; font-style: normal; font-variant: normal; text-decoration: none; vertical-align: baseline;&quot;&gt;Zararsız&lt;/span&gt;&lt;/p&gt;&lt;/td&gt;&lt;td style=&quot;vertical-align: top; background-color: rgb(255, 255, 255); padding: 6pt; overflow: hidden; overflow-wrap: break-word; font-size: 8px;&quot;&gt;&lt;p style=&quot;line-height: 1.38; margin-top: 15pt; margin-bottom: 15pt; font-size: 8px;&quot; dir=&quot;ltr&quot;&gt;&lt;span style=&quot;font-size: 8px; font-family: Verdana, sans-serif; background-color: transparent; font-weight: 400; font-style: normal; font-variant: normal; text-decoration: none; vertical-align: baseline;&quot;&gt;&lt;font color=&quot;#ff0000&quot; style=&quot;font-size: 8px;&quot;&gt;POST&lt;/font&gt;&lt;/span&gt;&lt;/p&gt;&lt;p style=&quot;line-height: 1.38; margin-top: 15pt; margin-bottom: 15pt; font-size: 8px;&quot; dir=&quot;ltr&quot;&gt;&lt;span style=&quot;font-size: 8px; font-family: Verdana, sans-serif; color: rgb(0, 0, 0); background-color: transparent; font-weight: 400; font-style: normal; font-variant: normal; text-decoration: none; vertical-align: baseline;&quot;&gt;Veriler yeniden gönderilecek (tarayıcı, kullanıcıyı verilerin yeniden gönderilmek üzere olduğu konusunda uyarmalıdır)&lt;/span&gt;&lt;/p&gt;&lt;/td&gt;&lt;/tr&gt;&lt;tr style=&quot;height: 26.25pt; font-size: 8px;&quot;&gt;&lt;td style=&quot;vertical-align: top; background-color: rgb(255, 255, 255); padding: 6pt 6pt 6pt 12pt; overflow: hidden; overflow-wrap: break-word; font-size: 8px;&quot;&gt;&lt;p style=&quot;line-height: 1.38; margin-top: 15pt; margin-bottom: 15pt; font-size: 8px;&quot; dir=&quot;ltr&quot;&gt;&lt;span style=&quot;font-size: 8px; font-family: Verdana, sans-serif; color: rgb(0, 0, 0); background-color: transparent; font-weight: 400; font-style: normal; font-variant: normal; text-decoration: none; vertical-align: baseline;&quot;&gt;Favorilere eklendi&lt;/span&gt;&lt;/p&gt;&lt;/td&gt;&lt;td style=&quot;vertical-align: top; background-color: rgb(255, 255, 255); padding: 6pt; overflow: hidden; overflow-wrap: break-word; font-size: 8px;&quot;&gt;&lt;p style=&quot;line-height: 1.38; margin-top: 15pt; margin-bottom: 15pt; font-size: 8px;&quot; dir=&quot;ltr&quot;&gt;&lt;span style=&quot;font-size: 8px; font-family: Verdana, sans-serif; color: rgb(0, 0, 0); background-color: transparent; font-weight: 400; font-style: normal; font-variant: normal; text-decoration: none; vertical-align: baseline;&quot;&gt;Yer imlerine eklenebilir&lt;/span&gt;&lt;/p&gt;&lt;/td&gt;&lt;td style=&quot;vertical-align: top; background-color: rgb(255, 255, 255); padding: 6pt; overflow: hidden; overflow-wrap: break-word; font-size: 8px;&quot;&gt;&lt;p style=&quot;line-height: 1.38; margin-top: 15pt; margin-bottom: 15pt; font-size: 8px;&quot; dir=&quot;ltr&quot;&gt;&lt;span style=&quot;font-size: 8px; font-family: Verdana, sans-serif; color: rgb(0, 0, 0); background-color: transparent; font-weight: 400; font-style: normal; font-variant: normal; text-decoration: none; vertical-align: baseline;&quot;&gt;Favorilere eklenemiyor&lt;/span&gt;&lt;/p&gt;&lt;/td&gt;&lt;/tr&gt;&lt;tr style=&quot;height: 26.25pt; font-size: 8px;&quot;&gt;&lt;td style=&quot;vertical-align: top; background-color: rgb(255, 255, 255); padding: 6pt 6pt 6pt 12pt; overflow: hidden; overflow-wrap: break-word; font-size: 8px;&quot;&gt;&lt;p style=&quot;line-height: 1.38; margin-top: 15pt; margin-bottom: 15pt; font-size: 8px;&quot; dir=&quot;ltr&quot;&gt;&lt;span style=&quot;font-size: 8px; font-family: Verdana, sans-serif; color: rgb(0, 0, 0); background-color: transparent; font-weight: 400; font-style: normal; font-variant: normal; text-decoration: none; vertical-align: baseline;&quot;&gt;Önbelleğe alınmış&lt;/span&gt;&lt;/p&gt;&lt;/td&gt;&lt;td style=&quot;vertical-align: top; background-color: rgb(255, 255, 255); padding: 6pt; overflow: hidden; overflow-wrap: break-word; font-size: 8px;&quot;&gt;&lt;p style=&quot;line-height: 0%; margin-top: 15pt; margin-bottom: 15pt; font-size: 8px;&quot; dir=&quot;ltr&quot;&gt;&lt;span style=&quot;font-size: 8px; font-family: Verdana, sans-serif; color: rgb(0, 0, 0); background-color: transparent; font-weight: 400; font-style: normal; font-variant: normal; text-decoration: none; vertical-align: baseline;&quot;&gt;Önbelleğe alınabilir&lt;/span&gt;&lt;/p&gt;&lt;/td&gt;&lt;td style=&quot;vertical-align: top; background-color: rgb(255, 255, 255); padding: 6pt; overflow: hidden; overflow-wrap: break-word; font-size: 8px;&quot;&gt;&lt;p style=&quot;line-height: 1.38; margin-top: 15pt; margin-bottom: 15pt; font-size: 8px;&quot; dir=&quot;ltr&quot;&gt;&lt;span style=&quot;font-size: 8px; font-family: Verdana, sans-serif; color: rgb(0, 0, 0); background-color: transparent; font-weight: 400; font-style: normal; font-variant: normal; text-decoration: none; vertical-align: baseline;&quot;&gt;Önbelleğe alınmadı&lt;/span&gt;&lt;/p&gt;&lt;/td&gt;&lt;/tr&gt;&lt;tr style=&quot;height: 40.5pt; font-size: 8px;&quot;&gt;&lt;td style=&quot;vertical-align: top; background-color: rgb(255, 255, 255); padding: 6pt 6pt 6pt 12pt; overflow: hidden; overflow-wrap: break-word; font-size: 8px;&quot;&gt;&lt;p style=&quot;line-height: 1.38; margin-top: 15pt; margin-bottom: 15pt; font-size: 8px;&quot; dir=&quot;ltr&quot;&gt;&lt;span style=&quot;font-size: 8px; font-family: Verdana, sans-serif; color: rgb(0, 0, 0); background-color: transparent; font-weight: 400; font-style: normal; font-variant: normal; text-decoration: none; vertical-align: baseline;&quot;&gt;Kodlama türü&lt;/span&gt;&lt;/p&gt;&lt;/td&gt;&lt;td style=&quot;vertical-align: top; background-color: rgb(255, 255, 255); padding: 6pt; overflow: hidden; overflow-wrap: break-word; font-size: 8px;&quot;&gt;&lt;p style=&quot;line-height: 1.38; margin-top: 15pt; margin-bottom: 15pt; font-size: 8px;&quot; dir=&quot;ltr&quot;&gt;&lt;span style=&quot;font-size: 8px; font-family: Verdana, sans-serif; color: rgb(0, 0, 0); background-color: transparent; font-weight: 400; font-style: normal; font-variant: normal; text-decoration: none; vertical-align: baseline;&quot;&gt;application/x-www-form-urlencoded&lt;/span&gt;&lt;/p&gt;&lt;/td&gt;&lt;td style=&quot;vertical-align: top; background-color: rgb(255, 255, 255); padding: 6pt; overflow: hidden; overflow-wrap: break-word; font-size: 8px;&quot;&gt;&lt;p style=&quot;line-height: 1.38; margin-top: 15pt; margin-bottom: 15pt; font-size: 8px;&quot; dir=&quot;ltr&quot;&gt;&lt;span style=&quot;font-size: 8px; font-family: Verdana, sans-serif; color: rgb(0, 0, 0); background-color: transparent; font-weight: 400; font-style: normal; font-variant: normal; text-decoration: none; vertical-align: baseline;&quot;&gt;application/x-www-form-urlencoded veya multipart/form-data. İkili veriler için çok parçalı kodlamayı kullanın&lt;/span&gt;&lt;/p&gt;&lt;/td&gt;&lt;/tr&gt;&lt;tr style=&quot;height: 26.25pt; font-size: 8px;&quot;&gt;&lt;td style=&quot;vertical-align: top; background-color: rgb(255, 255, 255); padding: 6pt 6pt 6pt 12pt; overflow: hidden; overflow-wrap: break-word; font-size: 8px;&quot;&gt;&lt;p style=&quot;line-height: 1.38; margin-top: 15pt; margin-bottom: 15pt; font-size: 8px;&quot; dir=&quot;ltr&quot;&gt;&lt;span style=&quot;font-size: 8px; font-family: Verdana, sans-serif; color: rgb(0, 0, 0); background-color: transparent; font-weight: 400; font-style: normal; font-variant: normal; text-decoration: none; vertical-align: baseline;&quot;&gt;Tarih&lt;/span&gt;&lt;/p&gt;&lt;/td&gt;&lt;td style=&quot;vertical-align: top; background-color: rgb(255, 255, 255); padding: 6pt; overflow: hidden; overflow-wrap: break-word; font-size: 8px;&quot;&gt;&lt;p style=&quot;line-height: 1.38; margin-top: 15pt; margin-bottom: 15pt; font-size: 8px;&quot; dir=&quot;ltr&quot;&gt;&lt;span style=&quot;font-size: 8px; font-family: Verdana, sans-serif; color: rgb(0, 0, 0); background-color: transparent; font-weight: 400; font-style: normal; font-variant: normal; text-decoration: none; vertical-align: baseline;&quot;&gt;Parametreler tarayıcı geçmişinde kalır&lt;/span&gt;&lt;/p&gt;&lt;/td&gt;&lt;td style=&quot;vertical-align: top; background-color: rgb(255, 255, 255); padding: 6pt; overflow: hidden; overflow-wrap: break-word; font-size: 8px;&quot;&gt;&lt;p style=&quot;line-height: 1.38; margin-top: 15pt; margin-bottom: 15pt; font-size: 8px;&quot; dir=&quot;ltr&quot;&gt;&lt;span style=&quot;font-size: 8px; font-family: Verdana, sans-serif; color: rgb(0, 0, 0); background-color: transparent; font-weight: 400; font-style: normal; font-variant: normal; text-decoration: none; vertical-align: baseline;&quot;&gt;Parametreler tarayıcı geçmişine kaydedilmez&lt;/span&gt;&lt;/p&gt;&lt;/td&gt;&lt;/tr&gt;&lt;tr style=&quot;height: 40.5pt; font-size: 8px;&quot;&gt;&lt;td style=&quot;vertical-align: top; background-color: rgb(255, 255, 255); padding: 6pt 6pt 6pt 12pt; overflow: hidden; overflow-wrap: break-word; font-size: 8px;&quot;&gt;&lt;p style=&quot;line-height: 1.38; margin-top: 15pt; margin-bottom: 15pt; font-size: 8px;&quot; dir=&quot;ltr&quot;&gt;&lt;span style=&quot;font-size: 8px; font-family: Verdana, sans-serif; color: rgb(0, 0, 0); background-color: transparent; font-weight: 400; font-style: normal; font-variant: normal; text-decoration: none; vertical-align: baseline;&quot;&gt;Veri uzunluğuna ilişkin kısıtlamalar&lt;/span&gt;&lt;/p&gt;&lt;/td&gt;&lt;td style=&quot;vertical-align: top; background-color: rgb(255, 255, 255); padding: 6pt; overflow: hidden; overflow-wrap: break-word; font-size: 8px;&quot;&gt;&lt;p style=&quot;line-height: 1.38; margin-top: 15pt; margin-bottom: 15pt; font-size: 8px;&quot; dir=&quot;ltr&quot;&gt;&lt;span style=&quot;font-size: 8px; font-family: Verdana, sans-serif; color: rgb(0, 0, 0); background-color: transparent; font-weight: 400; font-style: normal; font-variant: normal; text-decoration: none; vertical-align: baseline;&quot;&gt;Evet, veri gönderilirken GET yöntemi verileri URL'ye ekler; ve bir URL'nin uzunluğu sınırlıdır (maksimum URL uzunluğu 2048 karakterdir)&lt;/span&gt;&lt;/p&gt;&lt;/td&gt;&lt;td style=&quot;vertical-align: top; background-color: rgb(255, 255, 255); padding: 6pt; overflow: hidden; overflow-wrap: break-word; font-size: 8px;&quot;&gt;&lt;p style=&quot;line-height: 1.38; margin-top: 15pt; margin-bottom: 15pt; font-size: 8px;&quot; dir=&quot;ltr&quot;&gt;&lt;span style=&quot;font-size: 8px; font-family: Verdana, sans-serif; color: rgb(0, 0, 0); background-color: transparent; font-weight: 400; font-style: normal; font-variant: normal; text-decoration: none; vertical-align: baseline;&quot;&gt;Kısıtlama yok&lt;/span&gt;&lt;/p&gt;&lt;/td&gt;&lt;/tr&gt;&lt;tr style=&quot;height: 40.5pt; font-size: 8px;&quot;&gt;&lt;td style=&quot;vertical-align: top; background-color: rgb(255, 255, 255); padding: 6pt 6pt 6pt 12pt; overflow: hidden; overflow-wrap: break-word; font-size: 8px;&quot;&gt;&lt;p style=&quot;line-height: 1.38; margin-top: 15pt; margin-bottom: 15pt; font-size: 8px;&quot; dir=&quot;ltr&quot;&gt;&lt;span style=&quot;font-size: 8px; font-family: Verdana, sans-serif; color: rgb(0, 0, 0); background-color: transparent; font-weight: 400; font-style: normal; font-variant: normal; text-decoration: none; vertical-align: baseline;&quot;&gt;Veri türüne ilişkin kısıtlamalar&lt;/span&gt;&lt;/p&gt;&lt;/td&gt;&lt;td style=&quot;vertical-align: top; background-color: rgb(255, 255, 255); padding: 6pt; overflow: hidden; overflow-wrap: break-word; font-size: 8px;&quot;&gt;&lt;p style=&quot;line-height: 1.38; margin-top: 15pt; margin-bottom: 15pt; font-size: 8px;&quot; dir=&quot;ltr&quot;&gt;&lt;span style=&quot;font-size: 8px; font-family: Verdana, sans-serif; color: rgb(0, 0, 0); background-color: transparent; font-weight: 400; font-style: normal; font-variant: normal; text-decoration: none; vertical-align: baseline;&quot;&gt;Yalnızca ASCII karakterlere izin verilir&lt;/span&gt;&lt;/p&gt;&lt;/td&gt;&lt;td style=&quot;vertical-align: top; background-color: rgb(255, 255, 255); padding: 6pt; overflow: hidden; overflow-wrap: break-word; font-size: 8px;&quot;&gt;&lt;p style=&quot;line-height: 1.38; margin-top: 15pt; margin-bottom: 15pt; font-size: 8px;&quot; dir=&quot;ltr&quot;&gt;&lt;span style=&quot;font-size: 8px; font-family: Verdana, sans-serif; color: rgb(0, 0, 0); background-color: transparent; font-weight: 400; font-style: normal; font-variant: normal; text-decoration: none; vertical-align: baseline;&quot;&gt;Kısıtlama yok. İkili verilere de izin verilir&lt;/span&gt;&lt;/p&gt;&lt;/td&gt;&lt;/tr&gt;&lt;tr style=&quot;height: 54pt; font-size: 8px;&quot;&gt;&lt;td style=&quot;vertical-align: top; background-color: rgb(255, 255, 255); padding: 6pt 6pt 6pt 12pt; overflow: hidden; overflow-wrap: break-word; font-size: 8px;&quot;&gt;&lt;p style=&quot;line-height: 1.38; margin-top: 15pt; margin-bottom: 15pt; font-size: 8px;&quot; dir=&quot;ltr&quot;&gt;&lt;span style=&quot;font-size: 8px; font-family: Verdana, sans-serif; color: rgb(0, 0, 0); background-color: transparent; font-weight: 400; font-style: normal; font-variant: normal; text-decoration: none; vertical-align: baseline;&quot;&gt;Güvenlik&lt;/span&gt;&lt;/p&gt;&lt;/td&gt;&lt;td style=&quot;vertical-align: top; background-color: rgb(255, 255, 255); padding: 6pt; overflow: hidden; overflow-wrap: break-word; font-size: 8px;&quot;&gt;&lt;p style=&quot;line-height: 1.38; margin-top: 15pt; margin-bottom: 15pt; font-size: 8px;&quot; dir=&quot;ltr&quot;&gt;&lt;span style=&quot;font-size: 8px; font-family: Verdana, sans-serif; color: rgb(0, 0, 0); background-color: transparent; font-weight: 400; font-style: normal; font-variant: normal; text-decoration: none; vertical-align: baseline;&quot;&gt;GET, POST'a kıyasla daha az güvenlidir çünkü gönderilen veriler URL'nin bir parçasıdır&lt;/span&gt;&lt;/p&gt;&lt;br style=&quot;font-size: 8px;&quot;&gt;&lt;p style=&quot;line-height: 1.38; margin-top: 15pt; margin-bottom: 15pt; font-size: 8px;&quot; dir=&quot;ltr&quot;&gt;&lt;span style=&quot;font-size: 8px; font-family: Verdana, sans-serif; color: rgb(0, 0, 0); background-color: transparent; font-weight: 400; font-style: normal; font-variant: normal; text-decoration: none; vertical-align: baseline;&quot;&gt;Şifreleri veya diğer hassas bilgileri gönderirken asla GET kullanmayın!&lt;/span&gt;&lt;/p&gt;&lt;/td&gt;&lt;td style=&quot;vertical-align: top; background-color: rgb(255, 255, 255); padding: 6pt; overflow: hidden; overflow-wrap: break-word; font-size: 8px;&quot;&gt;&lt;p style=&quot;line-height: 1.38; margin-top: 15pt; margin-bottom: 15pt; font-size: 8px;&quot; dir=&quot;ltr&quot;&gt;&lt;span style=&quot;font-size: 8px; font-family: Verdana, sans-serif; color: rgb(0, 0, 0); background-color: transparent; font-weight: 400; font-style: normal; font-variant: normal; text-decoration: none; vertical-align: baseline;&quot;&gt;POST, GET'ten biraz daha güvenlidir çünkü parametreler tarayıcı geçmişinde veya web sunucusu günlüklerinde saklanmaz&lt;/span&gt;&lt;/p&gt;&lt;/td&gt;&lt;/tr&gt;&lt;tr style=&quot;height: 26.25pt; font-size: 8px;&quot;&gt;&lt;td style=&quot;vertical-align: top; background-color: rgb(255, 255, 255); padding: 6pt 6pt 6pt 12pt; overflow: hidden; overflow-wrap: break-word; font-size: 8px;&quot;&gt;&lt;p style=&quot;line-height: 1.38; margin-top: 15pt; margin-bottom: 15pt; font-size: 8px;&quot; dir=&quot;ltr&quot;&gt;&lt;span style=&quot;font-size: 8px; font-family: Verdana, sans-serif; color: rgb(0, 0, 0); background-color: transparent; font-weight: 400; font-style: normal; font-variant: normal; text-decoration: none; vertical-align: baseline;&quot;&gt;Görünürlük&lt;/span&gt;&lt;/p&gt;&lt;/td&gt;&lt;td style=&quot;vertical-align: top; background-color: rgb(255, 255, 255); padding: 6pt; overflow: hidden; overflow-wrap: break-word; font-size: 8px;&quot;&gt;&lt;p style=&quot;line-height: 1.38; margin-top: 15pt; margin-bottom: 15pt; font-size: 8px;&quot; dir=&quot;ltr&quot;&gt;&lt;span style=&quot;font-size: 8px; font-family: Verdana, sans-serif; color: rgb(0, 0, 0); background-color: transparent; font-weight: 400; font-style: normal; font-variant: normal; text-decoration: none; vertical-align: baseline;&quot;&gt;Veriler URL'deki herkes tarafından görülebilir&lt;/span&gt;&lt;/p&gt;&lt;/td&gt;&lt;td style=&quot;vertical-align: top; background-color: rgb(255, 255, 255); padding: 6pt; overflow: hidden; overflow-wrap: break-word; font-size: 8px;&quot;&gt;&lt;p style=&quot;line-height: 1.38; margin-top: 15pt; margin-bottom: 15pt; font-size: 8px;&quot; dir=&quot;ltr&quot;&gt;&lt;span style=&quot;font-size: 8px; font-family: Verdana, sans-serif; color: rgb(0, 0, 0); background-color: transparent; font-weight: 400; font-style: normal; font-variant: normal; text-decoration: none; vertical-align: baseline;&quot;&gt;Veriler URL'de görüntülenmiyor&lt;/span&gt;&lt;/p&gt;&lt;/td&gt;&lt;/tr&gt;&lt;/tbody&gt;&lt;/table&gt;&lt;/div&gt;&lt;/b&gt;" style="rounded=0;whiteSpace=wrap;html=1;strokeWidth=1;gradientColor=none;strokeColor=default;glass=0;shadow=0;fontSize=8;verticalAlign=bottom;" vertex="1" parent="1">
                    <mxGeometry y="650" width="600" height="820" as="geometry"/>
                </mxCell>
                <mxCell id="36" value="&lt;span style=&quot;font-family: Verdana, sans-serif; font-size: 9px; background-color: rgb(255, 255, 255);&quot;&gt;&lt;font color=&quot;#cc0000&quot; style=&quot;font-size: 9px;&quot;&gt;&lt;span style=&quot;white-space: pre; font-size: 9px;&quot;&gt;&#9;&lt;/span&gt;&lt;span style=&quot;white-space: pre; font-size: 9px;&quot;&gt;&#9;&lt;/span&gt;&lt;span style=&quot;white-space: pre; font-size: 9px;&quot;&gt;&#9;&lt;/span&gt;&lt;span style=&quot;white-space: pre; font-size: 9px;&quot;&gt;&#9;&lt;/span&gt;&lt;span style=&quot;white-space: pre; font-size: 9px;&quot;&gt;&#9;&lt;/span&gt;&lt;span style=&quot;white-space: pre; font-size: 9px;&quot;&gt;&#9;&lt;/span&gt;DELETE METHODS&lt;/font&gt;&lt;/span&gt;&lt;span style=&quot;color: rgb(0, 0, 0); font-family: Verdana, sans-serif; font-size: 9px; background-color: rgb(255, 255, 255);&quot;&gt;&amp;nbsp; &amp;nbsp; &amp;nbsp; &amp;nbsp; &amp;nbsp; &amp;nbsp; &amp;nbsp; &amp;nbsp; &amp;nbsp; &amp;nbsp; &amp;nbsp; &amp;nbsp; &amp;nbsp; &amp;nbsp; &amp;nbsp; &amp;nbsp; &amp;nbsp; &amp;nbsp; &amp;nbsp; &amp;nbsp; &amp;nbsp; &amp;nbsp; &amp;nbsp; &amp;nbsp;&lt;br&gt;&amp;nbsp;&amp;nbsp;&lt;/span&gt;&lt;span style=&quot;color: rgb(0, 0, 0); font-family: Verdana, sans-serif; font-size: 9px; background-color: rgb(255, 255, 255);&quot;&gt;DELETE yöntemi belirtilen kaynağı siler.&amp;nbsp; &amp;nbsp; &amp;nbsp; &amp;nbsp; &amp;nbsp; &amp;nbsp; &amp;nbsp; &amp;nbsp; &amp;nbsp; &amp;nbsp; &amp;nbsp; &amp;nbsp; &amp;nbsp; &amp;nbsp; &amp;nbsp; &amp;nbsp; &amp;nbsp; &amp;nbsp; &amp;nbsp; &amp;nbsp; &amp;nbsp; &amp;nbsp; &amp;nbsp; &amp;nbsp; &amp;nbsp; &amp;nbsp; &amp;nbsp; &amp;nbsp; &amp;nbsp; &amp;nbsp; &amp;nbsp; &amp;nbsp; &amp;nbsp;&lt;/span&gt;" style="whiteSpace=wrap;html=1;strokeWidth=1;align=left;fillColor=#FFFFFF;fontSize=9;" vertex="1" parent="1">
                    <mxGeometry x="5" y="1710" width="400" height="50" as="geometry"/>
                </mxCell>
                <mxCell id="37" value="&lt;br style=&quot;font-size: 9px;&quot;&gt;&lt;p style=&quot;box-sizing: inherit; margin-top: 1.2em; margin-bottom: 1.2em; font-size: 9px; font-family: Verdana, sans-serif; font-style: normal; font-variant-ligatures: normal; font-variant-caps: normal; font-weight: 400; letter-spacing: normal; orphans: 2; text-align: start; text-indent: 0px; text-transform: none; widows: 2; word-spacing: 0px; -webkit-text-stroke-width: 0px; background-color: rgb(255, 255, 255); text-decoration-thickness: initial; text-decoration-style: initial; text-decoration-color: initial;&quot;&gt;&lt;font style=&quot;box-sizing: inherit; vertical-align: inherit; font-size: 9px;&quot;&gt;&lt;font style=&quot;box-sizing: inherit; vertical-align: inherit; font-size: 9px;&quot;&gt;&lt;span style=&quot;color: rgb(0, 0, 0); white-space: pre; font-size: 9px;&quot;&gt;&#9;&lt;/span&gt;&lt;span style=&quot;color: rgb(0, 0, 0); white-space: pre; font-size: 9px;&quot;&gt;&#9;&lt;/span&gt;&lt;span style=&quot;color: rgb(0, 0, 0); white-space: pre; font-size: 9px;&quot;&gt;&#9;&lt;/span&gt;&lt;span style=&quot;color: rgb(0, 0, 0); white-space: pre; font-size: 9px;&quot;&gt;&#9;&lt;/span&gt;&lt;span style=&quot;color: rgb(0, 0, 0); white-space: pre; font-size: 9px;&quot;&gt;&#9;&lt;/span&gt;&lt;span style=&quot;color: rgb(0, 0, 0); white-space: pre; font-size: 9px;&quot;&gt;&#9;&lt;/span&gt;&lt;font color=&quot;#f90101&quot; style=&quot;font-size: 9px;&quot;&gt;PUT METHOD&lt;/font&gt;&lt;/font&gt;&lt;/font&gt;&lt;/p&gt;&lt;p style=&quot;box-sizing: inherit; margin-top: 1.2em; margin-bottom: 1.2em; font-size: 9px; color: rgb(0, 0, 0); font-family: Verdana, sans-serif; font-style: normal; font-variant-ligatures: normal; font-variant-caps: normal; font-weight: 400; letter-spacing: normal; orphans: 2; text-align: start; text-indent: 0px; text-transform: none; widows: 2; word-spacing: 0px; -webkit-text-stroke-width: 0px; background-color: rgb(255, 255, 255); text-decoration-thickness: initial; text-decoration-style: initial; text-decoration-color: initial;&quot;&gt;PUT, bir kaynağı oluşturmak/güncellemek amacıyla sunucuya veri göndermek için kullanılır.&lt;/p&gt;&lt;p style=&quot;box-sizing: inherit; margin-top: 1.2em; margin-bottom: 1.2em; font-size: 9px; color: rgb(0, 0, 0); font-family: Verdana, sans-serif; font-style: normal; font-variant-ligatures: normal; font-variant-caps: normal; font-weight: 400; letter-spacing: normal; orphans: 2; text-align: start; text-indent: 0px; text-transform: none; widows: 2; word-spacing: 0px; -webkit-text-stroke-width: 0px; background-color: rgb(255, 255, 255); text-decoration-thickness: initial; text-decoration-style: initial; text-decoration-color: initial;&quot;&gt;&lt;font style=&quot;box-sizing: inherit; vertical-align: inherit; font-size: 9px;&quot;&gt;&lt;font style=&quot;box-sizing: inherit; vertical-align: inherit; font-size: 9px;&quot;&gt;POST ve PUT arasındaki fark, PUT isteklerinin bağımsız olmasıdır.&lt;span style=&quot;font-size: 9px;&quot;&gt;&amp;nbsp;&lt;/span&gt;&lt;/font&gt;&lt;font style=&quot;box-sizing: inherit; vertical-align: inherit; font-size: 9px;&quot;&gt;Yani, aynı PUT isteğini birden çok kez çağırmak her zaman aynı sonucu üretecektir.&lt;span style=&quot;font-size: 9px;&quot;&gt;&amp;nbsp;&lt;/span&gt;&lt;/font&gt;&lt;font style=&quot;box-sizing: inherit; vertical-align: inherit; font-size: 9px;&quot;&gt;Buna karşılık, bir POST isteğinin tekrar tekrar çağrılması, aynı kaynağın birden çok kez oluşturulması gibi yan etkilere neden olur.&lt;/font&gt;&lt;/font&gt;&lt;/p&gt;" style="rounded=0;whiteSpace=wrap;html=1;strokeWidth=1;shadow=1;glass=0;gradientColor=none;gradientDirection=south;fillColor=#FFFFFF;fontSize=9;" vertex="1" parent="1">
                    <mxGeometry x="5" y="1490" width="400" height="190" as="geometry"/>
                </mxCell>
                <mxCell id="42" value="&lt;span style=&quot;font-family: Verdana, sans-serif; font-size: 9px; background-color: rgb(255, 255, 255);&quot;&gt;&lt;font color=&quot;#cc0000&quot; style=&quot;font-size: 9px;&quot;&gt;&lt;span style=&quot;font-size: 9px;&quot;&gt;&#9;&lt;/span&gt;&lt;span style=&quot;font-size: 9px;&quot;&gt;&#9;&lt;/span&gt;&lt;span style=&quot;font-size: 9px;&quot;&gt;&#9;&lt;/span&gt;&lt;span style=&quot;font-size: 9px;&quot;&gt;&#9;&lt;/span&gt;&lt;span style=&quot;font-size: 9px;&quot;&gt;&#9;&lt;/span&gt;&lt;span style=&quot;font-size: 9px;&quot;&gt;&#9;&lt;/span&gt;&lt;span style=&quot;white-space: pre; font-size: 9px;&quot;&gt;&#9;&lt;/span&gt;&lt;span style=&quot;white-space: pre; font-size: 9px;&quot;&gt;&#9;&lt;/span&gt;&lt;span style=&quot;white-space: pre; font-size: 9px;&quot;&gt;&#9;&lt;/span&gt;&lt;span style=&quot;white-space: pre; font-size: 9px;&quot;&gt;&#9;&lt;/span&gt;&lt;span style=&quot;white-space: pre; font-size: 9px;&quot;&gt;&#9;&lt;/span&gt;&lt;span style=&quot;white-space: pre; font-size: 9px;&quot;&gt;&#9;&lt;/span&gt;PATCH&amp;nbsp; METHODS&lt;/font&gt;&lt;/span&gt;&lt;span style=&quot;color: rgb(0, 0, 0); font-family: Verdana, sans-serif; font-size: 9px; background-color: rgb(255, 255, 255);&quot;&gt;&amp;nbsp; &amp;nbsp; &amp;nbsp; &amp;nbsp; &amp;nbsp; &amp;nbsp; &amp;nbsp; &amp;nbsp; &amp;nbsp; &amp;nbsp; &amp;nbsp; &amp;nbsp; &amp;nbsp; &amp;nbsp; &amp;nbsp; &amp;nbsp; &amp;nbsp; &amp;nbsp; &amp;nbsp; &amp;nbsp; &amp;nbsp; &amp;nbsp; &amp;nbsp; &amp;nbsp; &amp;nbsp; &amp;nbsp; &lt;/span&gt;&lt;span style=&quot;color: rgb(0, 0, 0); font-family: Verdana, sans-serif; font-size: 9px; background-color: rgb(255, 255, 255);&quot;&gt;PATCH yöntemi, bir kaynağa kısmi değişiklikler uygulamak için kullanılır.&lt;/span&gt;&lt;span style=&quot;color: rgb(0, 0, 0); font-family: Verdana, sans-serif; font-size: 9px; background-color: rgb(255, 255, 255);&quot;&gt;&amp;nbsp; &amp;nbsp; &amp;nbsp; &amp;nbsp; &amp;nbsp; &amp;nbsp; &amp;nbsp; &amp;nbsp; &amp;nbsp;&lt;/span&gt;" style="whiteSpace=wrap;html=1;strokeWidth=1;align=left;fillColor=#FFFFFF;fontSize=9;" vertex="1" parent="1">
                    <mxGeometry x="420" y="1710" width="390" height="50" as="geometry"/>
                </mxCell>
                <mxCell id="43" value="&lt;span style=&quot;font-family: Verdana, sans-serif; font-size: 9px; background-color: rgb(255, 255, 255);&quot;&gt;&lt;font color=&quot;#cc0000&quot; style=&quot;font-size: 9px;&quot;&gt;&lt;span style=&quot;font-size: 9px;&quot;&gt;&#9;&lt;/span&gt;&lt;span style=&quot;font-size: 9px;&quot;&gt;&#9;&lt;/span&gt;&lt;span style=&quot;font-size: 9px;&quot;&gt;&#9;&lt;/span&gt;&lt;span style=&quot;font-size: 9px;&quot;&gt;&#9;&lt;/span&gt;&lt;span style=&quot;font-size: 9px;&quot;&gt;&#9;&lt;/span&gt;&lt;span style=&quot;font-size: 9px;&quot;&gt;&#9;&lt;/span&gt;&lt;span style=&quot;white-space: pre; font-size: 9px;&quot;&gt;&#9;&lt;/span&gt;&lt;span style=&quot;white-space: pre; font-size: 9px;&quot;&gt;&#9;&lt;/span&gt;&lt;span style=&quot;white-space: pre; font-size: 9px;&quot;&gt;&#9;&lt;/span&gt;&lt;span style=&quot;white-space: pre; font-size: 9px;&quot;&gt;&#9;&lt;/span&gt;&lt;span style=&quot;white-space: pre; font-size: 9px;&quot;&gt;&#9;&lt;/span&gt;&lt;span style=&quot;white-space: pre; font-size: 9px;&quot;&gt;&#9;&lt;/span&gt;PATCH&amp;nbsp; METHODS&lt;/font&gt;&lt;/span&gt;&lt;span style=&quot;color: rgb(0, 0, 0); font-family: Verdana, sans-serif; font-size: 9px; background-color: rgb(255, 255, 255);&quot;&gt;&amp;nbsp; &amp;nbsp; &amp;nbsp; &amp;nbsp; &amp;nbsp; &amp;nbsp; &amp;nbsp; &amp;nbsp; &amp;nbsp; &amp;nbsp; &amp;nbsp; &amp;nbsp; &amp;nbsp; &amp;nbsp; &amp;nbsp; &amp;nbsp; &amp;nbsp; &amp;nbsp; &amp;nbsp; &amp;nbsp; &amp;nbsp; &amp;nbsp; &amp;nbsp; &amp;nbsp; &amp;nbsp; &amp;nbsp; &lt;/span&gt;&lt;span style=&quot;color: rgb(0, 0, 0); font-family: Verdana, sans-serif; font-size: 9px; background-color: rgb(255, 255, 255);&quot;&gt;PATCH yöntemi, bir kaynağa kısmi değişiklikler uygulamak için kullanılır.&lt;/span&gt;&lt;span style=&quot;color: rgb(0, 0, 0); font-family: Verdana, sans-serif; font-size: 9px; background-color: rgb(255, 255, 255);&quot;&gt;&amp;nbsp; &amp;nbsp; &amp;nbsp; &amp;nbsp; &amp;nbsp; &amp;nbsp; &amp;nbsp; &amp;nbsp; &amp;nbsp;&lt;/span&gt;" style="whiteSpace=wrap;html=1;strokeWidth=1;align=left;fillColor=#FFFFFF;fontSize=9;" vertex="1" parent="1">
                    <mxGeometry y="1800" width="400" height="50" as="geometry"/>
                </mxCell>
                <mxCell id="44" value="&lt;span style=&quot;font-family: Verdana, sans-serif; font-size: 9px; font-style: normal; font-variant-ligatures: normal; font-variant-caps: normal; font-weight: 400; letter-spacing: normal; orphans: 2; text-align: start; text-indent: 0px; text-transform: none; widows: 2; word-spacing: 0px; -webkit-text-stroke-width: 0px; background-color: rgb(255, 255, 255); text-decoration-thickness: initial; text-decoration-style: initial; text-decoration-color: initial; float: none; display: inline !important;&quot;&gt;&lt;span style=&quot;color: rgb(0, 0, 0); white-space: pre; font-size: 9px;&quot;&gt;&#9;&lt;/span&gt;&lt;span style=&quot;color: rgb(0, 0, 0); white-space: pre; font-size: 9px;&quot;&gt;&#9;&lt;/span&gt;&lt;span style=&quot;color: rgb(0, 0, 0); white-space: pre; font-size: 9px;&quot;&gt;&#9;&lt;/span&gt;&lt;span style=&quot;color: rgb(0, 0, 0); white-space: pre; font-size: 9px;&quot;&gt;&#9;&lt;span style=&quot;white-space: pre; font-size: 9px;&quot;&gt;&#9;&lt;/span&gt;&lt;span style=&quot;white-space: pre; font-size: 9px;&quot;&gt;&#9;&lt;/span&gt;&lt;/span&gt;OPTİONS METHOD&lt;/span&gt;&lt;span style=&quot;color: rgb(0, 0, 0); font-family: Verdana, sans-serif; font-size: 9px; font-style: normal; font-variant-ligatures: normal; font-variant-caps: normal; font-weight: 400; letter-spacing: normal; orphans: 2; text-align: start; text-indent: 0px; text-transform: none; widows: 2; word-spacing: 0px; -webkit-text-stroke-width: 0px; background-color: rgb(255, 255, 255); text-decoration-thickness: initial; text-decoration-style: initial; text-decoration-color: initial; float: none; display: inline !important;&quot;&gt;&amp;nbsp; &amp;nbsp; &amp;nbsp; &amp;nbsp; &amp;nbsp; &amp;nbsp; &amp;nbsp; &amp;nbsp; &amp;nbsp; &amp;nbsp; &amp;nbsp; &amp;nbsp; &amp;nbsp; &amp;nbsp; &amp;nbsp; &amp;nbsp; &amp;nbsp; &amp;nbsp; &amp;nbsp; &amp;nbsp; &amp;nbsp; &amp;nbsp; &lt;br&gt;Options yöntemi, hedef kaynak için iletişim seçeneklerini&amp;nbsp; açıklar.&lt;/span&gt;" style="text;whiteSpace=wrap;html=1;fontColor=#CC0000;fillColor=#FFFFFF;fontSize=9;" vertex="1" parent="1">
                    <mxGeometry y="1890" width="400" height="50" as="geometry"/>
                </mxCell>
                <mxCell id="45" value="&lt;br style=&quot;font-size: 9px;&quot;&gt;&lt;span style=&quot;font-family: Verdana, sans-serif; font-size: 9px; font-style: normal; font-variant-ligatures: normal; font-variant-caps: normal; font-weight: 400; letter-spacing: normal; orphans: 2; text-align: start; text-indent: 0px; text-transform: none; widows: 2; word-spacing: 0px; -webkit-text-stroke-width: 0px; background-color: rgb(255, 255, 255); text-decoration-thickness: initial; text-decoration-style: initial; text-decoration-color: initial; float: none; display: inline !important;&quot;&gt;&lt;span style=&quot;color: rgb(0, 0, 0); white-space: pre; font-size: 9px;&quot;&gt;&#9;&lt;/span&gt;&lt;span style=&quot;color: rgb(0, 0, 0); white-space: pre; font-size: 9px;&quot;&gt;&#9;&lt;/span&gt;&lt;span style=&quot;color: rgb(0, 0, 0); white-space: pre; font-size: 9px;&quot;&gt;&#9;&lt;/span&gt;&lt;span style=&quot;color: rgb(0, 0, 0); white-space: pre; font-size: 9px;&quot;&gt;&#9;&lt;/span&gt;&lt;font color=&quot;#000000&quot; style=&quot;font-size: 9px;&quot;&gt;&amp;nbsp; &amp;nbsp; &amp;nbsp;&lt;/font&gt;CONNECT METHOD&lt;/span&gt;&lt;span style=&quot;color: rgb(0, 0, 0); font-family: Verdana, sans-serif; font-size: 9px; font-style: normal; font-variant-ligatures: normal; font-variant-caps: normal; font-weight: 400; letter-spacing: normal; orphans: 2; text-align: start; text-indent: 0px; text-transform: none; widows: 2; word-spacing: 0px; -webkit-text-stroke-width: 0px; background-color: rgb(255, 255, 255); text-decoration-thickness: initial; text-decoration-style: initial; text-decoration-color: initial; float: none; display: inline !important;&quot;&gt;&amp;nbsp; &amp;nbsp; &amp;nbsp;&lt;span style=&quot;white-space: pre; font-size: 9px;&quot;&gt;&#9;&lt;/span&gt;&lt;span style=&quot;white-space: pre; font-size: 9px;&quot;&gt;&#9;&lt;/span&gt;&lt;span style=&quot;white-space: pre; font-size: 9px;&quot;&gt;&#9;&lt;/span&gt;&lt;span style=&quot;white-space: pre; font-size: 9px;&quot;&gt;&#9;&lt;/span&gt;&amp;nbsp; &amp;nbsp;&lt;br style=&quot;font-size: 9px;&quot;&gt;CONNECT yöntemi, istenen kaynakla iki yönlü bir iletişim (tünel) başlatmak için&amp;nbsp; &amp;nbsp; &amp;nbsp; &amp;nbsp;kullanılır.&lt;/span&gt;" style="text;whiteSpace=wrap;html=1;fontColor=#CC0000;fillColor=#FFFFFF;fontSize=9;" vertex="1" parent="1">
                    <mxGeometry x="420" y="1890" width="400" height="50" as="geometry"/>
                </mxCell>
                <mxCell id="46" value="&lt;span style=&quot;font-family: Verdana, sans-serif; font-size: 9px; font-style: normal; font-variant-ligatures: normal; font-variant-caps: normal; font-weight: 400; letter-spacing: normal; orphans: 2; text-align: start; text-indent: 0px; text-transform: none; widows: 2; word-spacing: 0px; -webkit-text-stroke-width: 0px; background-color: rgb(255, 255, 255); text-decoration-thickness: initial; text-decoration-style: initial; text-decoration-color: initial; float: none; display: inline !important;&quot;&gt;&lt;span style=&quot;color: rgb(0, 0, 0); white-space: pre; font-size: 9px;&quot;&gt;&#9;&lt;/span&gt;&lt;span style=&quot;color: rgb(0, 0, 0); white-space: pre; font-size: 9px;&quot;&gt;&#9;&lt;/span&gt;&lt;span style=&quot;color: rgb(0, 0, 0); white-space: pre; font-size: 9px;&quot;&gt;&#9;&lt;/span&gt;&lt;span style=&quot;color: rgb(0, 0, 0); white-space: pre; font-size: 9px;&quot;&gt;&#9;&lt;/span&gt;&lt;span style=&quot;color: rgb(0, 0, 0); white-space: pre; font-size: 9px;&quot;&gt;&#9;&lt;/span&gt;&lt;span style=&quot;color: rgb(0, 0, 0); white-space: pre; font-size: 9px;&quot;&gt;&#9;&lt;/span&gt;&lt;font color=&quot;#ff0000&quot; style=&quot;font-size: 9px;&quot;&gt;TRACE METHOD&lt;/font&gt;&lt;br style=&quot;font-size: 9px;&quot;&gt;&lt;font color=&quot;#000000&quot; style=&quot;font-size: 9px;&quot;&gt;TRACE yöntemi, hedef kaynağın yolunu test eden bir ileti geri döngü testi gerçekleştirmek için kullanılır (hata ayıklama amacıyla faydalıdır).&lt;/font&gt;&lt;/span&gt;" style="text;whiteSpace=wrap;html=1;fontColor=#CC0000;fillColor=#FFFFFF;fontSize=9;" vertex="1" parent="1">
                    <mxGeometry x="420" y="1800" width="400" height="60" as="geometry"/>
                </mxCell>
                <mxCell id="41" value="&lt;br style=&quot;font-size: 9px;&quot;&gt;&lt;p style=&quot;box-sizing: inherit; margin-top: 1.2em; margin-bottom: 1.2em; font-size: 9px; font-family: Verdana, sans-serif; font-style: normal; font-variant-ligatures: normal; font-variant-caps: normal; font-weight: 400; letter-spacing: normal; orphans: 2; text-align: start; text-indent: 0px; text-transform: none; widows: 2; word-spacing: 0px; -webkit-text-stroke-width: 0px; text-decoration-thickness: initial; text-decoration-style: initial; text-decoration-color: initial; background-color: rgb(255, 255, 255);&quot;&gt;&lt;span style=&quot;color: rgb(0, 0, 0); white-space: pre; font-size: 9px;&quot;&gt;&#9;&lt;/span&gt;&lt;span style=&quot;color: rgb(0, 0, 0); white-space: pre; font-size: 9px;&quot;&gt;&#9;&lt;/span&gt;&lt;span style=&quot;color: rgb(0, 0, 0); white-space: pre; font-size: 9px;&quot;&gt;&#9;&lt;/span&gt;&lt;span style=&quot;color: rgb(0, 0, 0); white-space: pre; font-size: 9px;&quot;&gt;&#9;&lt;/span&gt;&lt;span style=&quot;color: rgb(0, 0, 0); white-space: pre; font-size: 9px;&quot;&gt;&#9;&lt;/span&gt;&lt;span style=&quot;color: rgb(0, 0, 0); white-space: pre; font-size: 9px;&quot;&gt;&#9;&lt;/span&gt;&lt;font color=&quot;#ff0000&quot; style=&quot;font-size: 9px;&quot;&gt;HEAD METHOD&lt;/font&gt;&lt;/p&gt;&lt;p style=&quot;box-sizing: inherit; margin-top: 1.2em; margin-bottom: 1.2em; font-size: 9px; font-family: Verdana, sans-serif; font-style: normal; font-variant-ligatures: normal; font-variant-caps: normal; font-weight: 400; letter-spacing: normal; orphans: 2; text-align: start; text-indent: 0px; text-transform: none; widows: 2; word-spacing: 0px; -webkit-text-stroke-width: 0px; text-decoration-thickness: initial; text-decoration-style: initial; text-decoration-color: initial; background-color: rgb(255, 255, 255); color: rgb(0, 0, 0);&quot;&gt;&lt;font style=&quot;box-sizing: inherit; vertical-align: inherit; font-size: 9px;&quot;&gt;&lt;font style=&quot;box-sizing: inherit; vertical-align: inherit; font-size: 9px;&quot;&gt;HEAD, GET ile neredeyse aynıdır ancak yanıt gövdesi yoktur.&lt;/font&gt;&lt;/font&gt;&lt;/p&gt;&lt;p style=&quot;box-sizing: inherit; margin-top: 1.2em; margin-bottom: 1.2em; font-size: 9px; font-family: Verdana, sans-serif; font-style: normal; font-variant-ligatures: normal; font-variant-caps: normal; font-weight: 400; letter-spacing: normal; orphans: 2; text-align: start; text-indent: 0px; text-transform: none; widows: 2; word-spacing: 0px; -webkit-text-stroke-width: 0px; text-decoration-thickness: initial; text-decoration-style: initial; text-decoration-color: initial; background-color: rgb(255, 255, 255); color: rgb(0, 0, 0);&quot;&gt;&lt;font style=&quot;box-sizing: inherit; vertical-align: inherit; font-size: 9px;&quot;&gt;&lt;font style=&quot;box-sizing: inherit; vertical-align: inherit; font-size: 9px;&quot;&gt;Başka bir deyişle, eğer GET /users bir kullanıcı listesi döndürürse, HEAD /users aynı isteği yapacak ancak kullanıcıların listesini döndürmeyecektir.&lt;/font&gt;&lt;/font&gt;&lt;/p&gt;&lt;p style=&quot;box-sizing: inherit; margin-top: 1.2em; margin-bottom: 1.2em; font-size: 9px; font-family: Verdana, sans-serif; font-style: normal; font-variant-ligatures: normal; font-variant-caps: normal; font-weight: 400; letter-spacing: normal; orphans: 2; text-align: start; text-indent: 0px; text-transform: none; widows: 2; word-spacing: 0px; -webkit-text-stroke-width: 0px; text-decoration-thickness: initial; text-decoration-style: initial; text-decoration-color: initial; background-color: rgb(255, 255, 255); color: rgb(0, 0, 0);&quot;&gt;&lt;font style=&quot;box-sizing: inherit; vertical-align: inherit; font-size: 9px;&quot;&gt;&lt;font style=&quot;box-sizing: inherit; vertical-align: inherit; font-size: 9px;&quot;&gt;Bir HEAD isteği, gerçekten bir GET isteği yapmadan önce bir GET isteğinin ne döndüreceğini kontrol etmek için kullanışlıdır - bir HEAD isteği, dosyayı gerçekten indirmeden, dosyanın boyutunu kontrol etmek için Content-Length başlığını okuyabilir.&lt;/font&gt;&lt;/font&gt;&lt;/p&gt;" style="rounded=0;whiteSpace=wrap;html=1;strokeWidth=1;glass=0;fillColor=#FFFFFF;strokeColor=default;shadow=0;gradientColor=default;fontSize=9;" vertex="1" parent="1">
                    <mxGeometry x="420" y="1494" width="400" height="186" as="geometry"/>
                </mxCell>
            </root>
        </mxGraphModel>
    </diagram>
</mxfile>